PathFileType	4	(X/Y/Z)	/Users/itak/Documents/Research/Walk-IL/dataset/trc/00505_00183.trc
DataRate	CameraRate	NumFrames	NumMarkers	Units	OrigDataRate	OrigDataStartFrame	OrigNumFrames
100.000000	100.000000	4	53	mm	100.000000	322	369
Frame#	Time	RPSI			LPSI			L3			STRN			T10			C7			CLAV			RBAK			LBAK			LSHO			LUPA			LAEL			LAOL			LWTS			LWPS			LFRA			LIFD			LHPS			LHTS			RSHO			RUPA			RAEL			RAOL			RWTS			RWPS			RFRA			RIFD			RHTS			RHPS			RBHD			LFHD			RFHD			LBHD			LHIP			RHIP			RASI			LASI			LKNE			LTHI			LANK			LTIP			LTOE			LMT1			LMT5			LHEE			RKNE			RTHI			RANK			RTIP			RTOE			RMT1			RMT5			RHEE			
		X1	Y1	Z1	X2	Y2	Z2	X3	Y3	Z3	X4	Y4	Z4	X5	Y5	Z5	X6	Y6	Z6	X7	Y7	Z7	X8	Y8	Z8	X9	Y9	Z9	X10	Y10	Z10	X11	Y11	Z11	X12	Y12	Z12	X13	Y13	Z13	X14	Y14	Z14	X15	Y15	Z15	X16	Y16	Z16	X17	Y17	Z17	X18	Y18	Z18	X19	Y19	Z19	X20	Y20	Z20	X21	Y21	Z21	X22	Y22	Z22	X23	Y23	Z23	X24	Y24	Z24	X25	Y25	Z25	X26	Y26	Z26	X27	Y27	Z27	X28	Y28	Z28	X29	Y29	Z29	X30	Y30	Z30	X31	Y31	Z31	X32	Y32	Z32	X33	Y33	Z33	X34	Y34	Z34	X35	Y35	Z35	X36	Y36	Z36	X37	Y37	Z37	X38	Y38	Z38	X39	Y39	Z39	X40	Y40	Z40	X41	Y41	Z41	X42	Y42	Z42	X43	Y43	Z43	X44	Y44	Z44	X45	Y45	Z45	X46	Y46	Z46	X47	Y47	Z47	X48	Y48	Z48	X49	Y49	Z49	X50	Y50	Z50	X51	Y51	Z51	X52	Y52	Z52	X53	Y53	Z53	

323	3.22	1312.741455078125	952.6058959960938	962.2119140625	1372.958251953125	952.046875	854.1578979492188	1343.054077148438	1026.475830078125	903.26416015625	1542.690307617188	1189.337158203125	984.1956176757812	1328.259765625	1129.911743164062	898.9302978515625	1366.66552734375	1360.803588867188	910.933837890625	1510.818115234375	1284.212768554688	967.6725463867188	1290.15234375	1241.106201171875	975.985595703125	1374.477416992188	1303.548095703125	822.5833129882812	1488.588623046875	1348.82763671875	787.4794311523438	1485.34716796875	1227.348266601562	719.1904296875	1466.629760742188	1026.264038085938	670.5277099609375	1387.69921875	1017.635009765625	730.7943725585938	1541.257690429688	831.9668579101562	680.4254150390625	1454.98974609375	804.5517578125	654.7503051757812	1474.713500976562	942.8958740234375	659.3600463867188	1535.523803710938	675.645751953125	676.2112426757812	1474.404174804688	750.5014038085938	647.3106079101562	1540.74609375	756.6973266601562	650.9112548828125	1364.46435546875	1360.999389648438	1066.132934570312	1323.901977539062	1299.547241210938	1115.998779296875	1289.166381835938	1041.824829101562	1186.01220703125	1259.211059570312	1017.716186523438	1132.089477539062	1414.736694335938	868.325439453125	1245.251953125	1330.069580078125	837.3495483398438	1256.063720703125	1289.380249023438	989.02490234375	1203.841552734375	1429.056274414062	711.6119995117188	1284.093627929688	1426.097900390625	784.0208129882812	1295.11962890625	1355.523315429688	772.4506225585938	1283.583374023438	1342.50244140625	1494.306640625	969.427734375	1504.248657226562	1593.45263671875	906.0598754882812	1432.821899414062	1589.68994140625	1010.517883300781	1421.604614257812	1488.848754882812	832.4495239257812	1531.298095703125	881.127197265625	792.9445190429688	1348.546752929688	858.2708740234375	1125.470825195312	1465.345458984375	907.9736328125	1112.41943359375	1578.589233398438	918.7332763671875	897.4142456054688	1529.335571289062	460.7170715332031	841.0147094726562	1555.020385742188	619.3060913085938	826.6739501953125	1387.224853515625	48.28908157348633	752.4423217773438	1488.171508789062	314.7246704101562	806.6813354492188	1523.429809570312	23.32184791564941	906.7095336914062	1441.317749023438	33.13029861450195	891.6995849609375	1486.3740234375	31.66623687744141	800.5044555664062	1315.461669921875	46.0009880065918	779.331298828125	1383.636474609375	470.2873229980469	1089.980224609375	1375.527465820312	729.5239868164062	1136.9521484375	1286.71142578125	45.14463424682617	1005.653930664062	1381.723266601562	323.2974548339844	1068.6884765625	1474.175659179688	26.53624534606934	1085.182983398438	1442.411743164062	32.24349594116211	1015.62890625	1370.617309570312	34.37018585205078	1081.82861328125	1267.705810546875	35.27838134765625	938.564453125	
324	3.23	1312.921630859375	952.0230712890625	962.7586059570312	1372.805053710938	951.35498046875	854.6605224609375	1343.469116210938	1026.338989257812	903.7067260742188	1542.886474609375	1188.640502929688	985.1211547851562	1328.52490234375	1130.08544921875	899.3689575195312	1367.71435546875	1360.823120117188	912.2257080078125	1511.283813476562	1283.546630859375	968.8037109375	1290.795043945312	1241.08349609375	976.8828735351562	1375.534301757812	1303.604125976562	823.625244140625	1489.734375	1348.875610351562	788.7275390625	1485.978271484375	1227.173950195312	720.7158203125	1466.400756835938	1025.9033203125	672.7720336914062	1387.421142578125	1017.84228515625	733.024169921875	1541.0029296875	831.8836059570312	683.920166015625	1454.970458984375	803.7083129882812	658.3742065429688	1474.400024414062	942.623046875	662.1472778320312	1535.92041015625	675.46728515625	682.8877563476562	1474.5595703125	749.332763671875	652.371337890625	1540.914794921875	756.0123901367188	655.9539184570312	1365.224975585938	1360.79345703125	1067.327270507812	1324.4375	1299.234130859375	1116.9267578125	1289.155639648438	1041.292114257812	1186.1552734375	1259.45263671875	1017.272338867188	1132.194946289062	1415.038452148438	868.3812866210938	1245.776611328125	1330.3359375	836.5839233398438	1255.760131835938	1289.475952148438	988.5317993164062	1204.0048828125	1430.042602539062	711.4520874023438	1283.86962890625	1426.574340820312	783.8140258789062	1295.297485351562	1356.169311523438	771.8974609375	1283.304931640625	1343.996215820312	1494.0576171875	970.9470825195312	1506.002319335938	1592.922607421875	907.7088623046875	1434.4677734375	1589.205078125	1012.03759765625	1423.238037109375	1488.505004882812	833.9874267578125	1531.789794921875	880.9674682617188	793.5306396484375	1348.715209960938	857.6978759765625	1125.425537109375	1465.626708984375	907.7634887695312	1113.033447265625	1579.048828125	918.6453247070312	898.0035400390625	1529.574462890625	460.7185668945312	841.01904296875	1555.494873046875	619.2059326171875	827.0347900390625	1387.191162109375	48.27280426025391	752.3987426757812	1488.289672851562	314.7134704589844	806.6661376953125	1523.4482421875	23.34003257751465	906.69189453125	1441.344848632812	33.12761306762695	891.6505737304688	1486.382568359375	31.58451652526855	800.4449462890625	1315.464111328125	46.07900619506836	779.2928466796875	1383.615234375	469.9503479003906	1090.283935546875	1376.224853515625	729.1727294921875	1137.6240234375	1286.601196289062	44.87965393066406	1005.653869628906	1381.633911132812	323.0949096679688	1068.955200195312	1474.05419921875	26.61244964599609	1085.122192382812	1442.306274414062	32.24800109863281	1015.624206542969	1370.444702148438	34.11297988891602	1081.81982421875	1267.477905273438	34.83511352539062	938.6236572265625	
325	3.24	1312.999267578125	951.40283203125	963.2601928710938	1372.453491210938	950.5368041992188	855.0831909179688	1343.8173828125	1026.1865234375	904.1036376953125	1543.021118164062	1188.042114257812	985.9950561523438	1328.831787109375	1130.202758789062	899.8646850585938	1368.608642578125	1360.850219726562	913.4639892578125	1511.638549804688	1282.9716796875	969.8768310546875	1291.374145507812	1241.04736328125	977.7196044921875	1376.474975585938	1303.669311523438	824.5979614257812	1490.725952148438	1348.97265625	789.9283447265625	1486.60693359375	1227.045166015625	722.1834106445312	1466.397583007812	1025.552368164062	675.0377197265625	1387.30029296875	1018.060607910156	735.1767578125	1540.961303710938	831.7835693359375	687.5104370117188	1455.2314453125	802.8742065429688	661.8585205078125	1474.343627929688	942.391357421875	664.9384765625	1536.422729492188	675.3355102539062	689.6987915039062	1474.967407226562	748.1469116210938	657.4367065429688	1541.3388671875	755.3290405273438	661.1226806640625	1365.85009765625	1360.596557617188	1068.472534179688	1324.870849609375	1298.916381835938	1117.804321289062	1289.2265625	1040.775634765625	1186.31591796875	1259.737060546875	1016.85107421875	1132.319213867188	1415.373901367188	868.2647705078125	1246.068359375	1330.637329101562	835.8461303710938	1255.508056640625	1289.6357421875	988.0469360351562	1204.149780273438	1430.883911132812	711.0831909179688	1283.263671875	1427.032348632812	783.3079833984375	1295.079223632812	1356.699829101562	771.116455078125	1282.75146484375	1345.381225585938	1493.994506835938	972.4464721679688	1507.7880859375	1592.416870117188	909.4271240234375	1436.158203125	1588.740844726562	1013.636657714844	1424.75830078125	1488.40966796875	835.4546508789062	1532.1513671875	880.7723388671875	794.0140380859375	1348.924438476562	857.148193359375	1125.501586914062	1465.891845703125	907.54833984375	1113.526245117188	1579.434326171875	918.5507202148438	898.44873046875	1529.826538085938	460.6839599609375	841.0503540039062	1555.90478515625	619.0712890625	827.3577880859375	1387.143188476562	48.27962875366211	752.378173828125	1488.413452148438	314.6723327636719	806.6874389648438	1523.455200195312	23.35389518737793	906.6837158203125	1441.359497070312	33.10847091674805	891.6238403320312	1486.37109375	31.52634239196777	800.4102783203125	1315.45947265625	46.12114334106445	779.3043212890625	1383.601318359375	469.6313171386719	1090.555053710938	1376.872314453125	728.818115234375	1138.220092773438	1286.516723632812	44.63439559936523	1005.6689453125	1381.554931640625	322.95068359375	1069.212890625	1473.936889648438	26.69352722167969	1085.06298828125	1442.211669921875	32.25553512573242	1015.618713378906	1370.304565429688	33.88272476196289	1081.805297851562	1267.259887695312	34.42425918579102	938.6663818359375	
326	3.25	1313.018432617188	950.7877197265625	963.7207641601562	1372.019653320312	949.6578369140625	855.4490966796875	1344.119873046875	1026.015502929688	904.4845581054688	1543.111083984375	1187.559448242188	986.8243408203125	1329.205444335938	1130.2578125	900.4292602539062	1369.33251953125	1360.864624023438	914.6190185546875	1511.88525390625	1282.507934570312	970.8911743164062	1291.879150390625	1240.97607421875	978.5071411132812	1377.2900390625	1303.724975585938	825.5111083984375	1491.554443359375	1349.103271484375	791.0750732421875	1487.231323242188	1226.953735351562	723.5744018554688	1466.636108398438	1025.198364257812	677.2944946289062	1387.362915039062	1018.269653320312	737.2227783203125	1541.1474609375	831.648193359375	691.168701171875	1455.780883789062	802.040283203125	665.1754150390625	1474.560668945312	942.1753540039062	667.69482421875	1536.99658203125	675.2323608398438	696.575439453125	1475.632568359375	746.9671020507812	662.41259765625	1542.00537109375	754.6358032226562	666.3705444335938	1366.31884765625	1360.3984375	1069.5458984375	1325.1953125	1298.596313476562	1118.636840820312	1289.39208984375	1040.286010742188	1186.519165039062	1260.062866210938	1016.458312988281	1132.479125976562	1415.72412109375	867.9200439453125	1246.09423828125	1330.987426757812	835.1439819335938	1255.31494140625	1289.85693359375	987.5565795898438	1204.278198242188	1431.584228515625	710.5101318359375	1282.316162109375	1427.481079101562	782.5223388671875	1294.481689453125	1357.12060546875	770.1304931640625	1281.956787109375	1346.655395507812	1494.147338867188	973.920166015625	1509.6044921875	1591.938598632812	911.2084350585938	1437.89501953125	1588.30224609375	1015.315002441406	1426.14013671875	1488.57958984375	836.8553466796875	1532.401489257812	880.5562133789062	794.4108276367188	1349.145629882812	856.6556396484375	1125.652709960938	1466.146728515625	907.3173217773438	1113.916748046875	1579.757934570312	918.4426879882812	898.774658203125	1530.080688476562	460.6199035644531	841.0892944335938	1556.239501953125	618.9129638671875	827.6301879882812	1387.078735351562	48.29788208007812	752.3853149414062	1488.529052734375	314.6110229492188	806.7271728515625	1523.449829101562	23.36222457885742	906.6829223632812	1441.364868164062	33.07832717895508	891.6178588867188	1486.340576171875	31.48371887207031	800.3952026367188	1315.442993164062	46.1329345703125	779.3619384765625	1383.599487304688	469.3391418457031	1090.802490234375	1377.42431640625	728.4694213867188	1138.726806640625	1286.46044921875	44.42078018188477	1005.709533691406	1381.473999023438	322.8444213867188	1069.461547851562	1473.828002929688	26.7769660949707	1085.009643554688	1442.130004882812	32.26668167114258	1015.613708496094	1370.196899414062	33.68519973754883	1081.793090820312	1267.064819335938	34.06891250610352	938.68701171875	
